<svg width="1440" height="640" viewBox="0 0 1440 640" fill="none" xmlns="http://www.w3.org/2000/svg">
<rect width="1440" height="640" fill="white"/>
<circle opacity="0.4" cx="717.5" cy="185.5" r="150.5" fill="#56FAB8"/>
<ellipse opacity="0.4" cx="622.5" cy="338" rx="150.5" ry="150" fill="#56FAB8"/>
<circle opacity="0.4" cx="817.5" cy="336.5" r="150.5" fill="#56FAB8"/>
<path d="M697.332 115.636H700.415V129.03C700.415 130.455 700.08 131.718 699.411 132.818C698.741 133.912 697.8 134.774 696.587 135.403C695.374 136.027 693.952 136.338 692.321 136.338C690.697 136.338 689.278 136.027 688.065 135.403C686.852 134.774 685.911 133.912 685.241 132.818C684.572 131.718 684.237 130.455 684.237 129.03V115.636H687.31V128.781C687.31 129.703 687.512 130.521 687.916 131.237C688.327 131.953 688.907 132.517 689.656 132.928C690.405 133.332 691.294 133.534 692.321 133.534C693.355 133.534 694.247 133.332 694.996 132.928C695.751 132.517 696.328 131.953 696.726 131.237C697.13 130.521 697.332 129.703 697.332 128.781V115.636ZM715.588 124.456L712.893 124.933C712.78 124.589 712.601 124.26 712.356 123.949C712.118 123.637 711.793 123.382 711.382 123.183C710.971 122.984 710.457 122.885 709.841 122.885C708.999 122.885 708.296 123.074 707.733 123.452C707.169 123.823 706.887 124.304 706.887 124.893C706.887 125.404 707.076 125.815 707.454 126.126C707.832 126.438 708.442 126.693 709.284 126.892L711.71 127.449C713.115 127.774 714.163 128.274 714.852 128.95C715.541 129.626 715.886 130.505 715.886 131.585C715.886 132.5 715.621 133.315 715.091 134.031C714.567 134.741 713.834 135.297 712.893 135.702C711.958 136.106 710.875 136.308 709.642 136.308C707.931 136.308 706.536 135.944 705.456 135.214C704.375 134.479 703.712 133.435 703.467 132.082L706.341 131.645C706.52 132.394 706.887 132.961 707.444 133.345C708.001 133.723 708.727 133.912 709.622 133.912C710.596 133.912 711.375 133.71 711.958 133.305C712.542 132.894 712.833 132.394 712.833 131.804C712.833 131.327 712.654 130.926 712.297 130.601C711.945 130.276 711.405 130.031 710.676 129.865L708.091 129.298C706.665 128.973 705.611 128.456 704.929 127.747C704.252 127.038 703.914 126.14 703.914 125.053C703.914 124.151 704.166 123.362 704.67 122.686C705.174 122.01 705.87 121.483 706.758 121.105C707.646 120.721 708.664 120.528 709.811 120.528C711.461 120.528 712.761 120.886 713.708 121.602C714.656 122.312 715.283 123.263 715.588 124.456ZM725.237 136.308C723.732 136.308 722.437 135.987 721.349 135.344C720.269 134.694 719.434 133.783 718.844 132.609C718.26 131.429 717.969 130.047 717.969 128.463C717.969 126.899 718.26 125.52 718.844 124.327C719.434 123.134 720.256 122.202 721.31 121.533C722.37 120.863 723.61 120.528 725.028 120.528C725.89 120.528 726.725 120.671 727.534 120.956C728.343 121.241 729.069 121.688 729.712 122.298C730.355 122.908 730.862 123.7 731.233 124.675C731.604 125.643 731.79 126.819 731.79 128.205V129.259H719.649V127.031H728.876C728.876 126.249 728.717 125.556 728.399 124.953C728.081 124.343 727.634 123.863 727.057 123.511C726.487 123.16 725.817 122.984 725.048 122.984C724.213 122.984 723.484 123.19 722.861 123.601C722.244 124.005 721.767 124.536 721.429 125.192C721.098 125.841 720.932 126.547 720.932 127.31V129.05C720.932 130.071 721.111 130.939 721.469 131.655C721.833 132.371 722.34 132.918 722.99 133.295C723.64 133.667 724.399 133.852 725.267 133.852C725.83 133.852 726.344 133.773 726.808 133.614C727.272 133.448 727.673 133.203 728.011 132.878C728.349 132.553 728.608 132.152 728.787 131.675L731.601 132.182C731.375 133.01 730.971 133.736 730.388 134.359C729.811 134.976 729.085 135.456 728.21 135.801C727.342 136.139 726.351 136.308 725.237 136.308ZM734.588 136V120.727H737.462V123.153H737.621C737.9 122.331 738.39 121.685 739.093 121.214C739.802 120.737 740.604 120.499 741.499 120.499C741.685 120.499 741.903 120.505 742.155 120.518C742.414 120.532 742.616 120.548 742.762 120.568V123.412C742.642 123.379 742.43 123.342 742.125 123.303C741.82 123.256 741.516 123.233 741.211 123.233C740.508 123.233 739.882 123.382 739.331 123.68C738.788 123.972 738.357 124.38 738.039 124.903C737.721 125.42 737.561 126.01 737.561 126.673V136H734.588ZM756.279 124.456L753.585 124.933C753.472 124.589 753.293 124.26 753.048 123.949C752.809 123.637 752.484 123.382 752.073 123.183C751.662 122.984 751.148 122.885 750.532 122.885C749.69 122.885 748.987 123.074 748.424 123.452C747.861 123.823 747.579 124.304 747.579 124.893C747.579 125.404 747.768 125.815 748.146 126.126C748.523 126.438 749.133 126.693 749.975 126.892L752.401 127.449C753.807 127.774 754.854 128.274 755.543 128.95C756.233 129.626 756.577 130.505 756.577 131.585C756.577 132.5 756.312 133.315 755.782 134.031C755.258 134.741 754.526 135.297 753.585 135.702C752.65 136.106 751.566 136.308 750.333 136.308C748.623 136.308 747.228 135.944 746.147 135.214C745.067 134.479 744.404 133.435 744.158 132.082L747.032 131.645C747.211 132.394 747.579 132.961 748.136 133.345C748.692 133.723 749.418 133.912 750.313 133.912C751.288 133.912 752.067 133.71 752.65 133.305C753.233 132.894 753.525 132.394 753.525 131.804C753.525 131.327 753.346 130.926 752.988 130.601C752.637 130.276 752.096 130.031 751.367 129.865L748.782 129.298C747.357 128.973 746.303 128.456 745.62 127.747C744.944 127.038 744.606 126.14 744.606 125.053C744.606 124.151 744.858 123.362 745.362 122.686C745.865 122.01 746.561 121.483 747.45 121.105C748.338 120.721 749.355 120.528 750.502 120.528C752.153 120.528 753.452 120.886 754.4 121.602C755.348 122.312 755.974 123.263 756.279 124.456Z" fill="#008360"/>
<path d="M789.233 329.281V326.636H804.993V329.281H798.639V347H795.577V329.281H789.233ZM812.104 347.308C810.6 347.308 809.304 346.987 808.217 346.344C807.136 345.694 806.301 344.783 805.711 343.609C805.128 342.429 804.836 341.047 804.836 339.463C804.836 337.899 805.128 336.52 805.711 335.327C806.301 334.134 807.123 333.202 808.177 332.533C809.237 331.863 810.477 331.528 811.896 331.528C812.757 331.528 813.593 331.671 814.401 331.956C815.21 332.241 815.936 332.688 816.579 333.298C817.222 333.908 817.729 334.7 818.1 335.675C818.471 336.643 818.657 337.819 818.657 339.205V340.259H806.516V338.031H815.744C815.744 337.249 815.585 336.556 815.266 335.953C814.948 335.343 814.501 334.863 813.924 334.511C813.354 334.16 812.684 333.984 811.915 333.984C811.08 333.984 810.351 334.19 809.728 334.601C809.112 335.005 808.634 335.536 808.296 336.192C807.965 336.841 807.799 337.547 807.799 338.31V340.05C807.799 341.071 807.978 341.939 808.336 342.655C808.701 343.371 809.208 343.918 809.857 344.295C810.507 344.667 811.266 344.852 812.134 344.852C812.698 344.852 813.211 344.773 813.675 344.614C814.139 344.448 814.54 344.203 814.879 343.878C815.217 343.553 815.475 343.152 815.654 342.675L818.468 343.182C818.243 344.01 817.838 344.736 817.255 345.359C816.678 345.976 815.952 346.456 815.077 346.801C814.209 347.139 813.218 347.308 812.104 347.308ZM827.889 347.308C826.411 347.308 825.138 346.973 824.071 346.304C823.01 345.628 822.195 344.696 821.625 343.51C821.055 342.323 820.77 340.964 820.77 339.433C820.77 337.882 821.061 336.513 821.645 335.327C822.228 334.134 823.05 333.202 824.11 332.533C825.171 331.863 826.421 331.528 827.859 331.528C829.019 331.528 830.053 331.744 830.961 332.175C831.869 332.599 832.602 333.196 833.159 333.964C833.722 334.733 834.057 335.632 834.163 336.659H831.27C831.11 335.943 830.746 335.327 830.176 334.81C829.612 334.293 828.857 334.034 827.909 334.034C827.08 334.034 826.354 334.253 825.731 334.69C825.115 335.121 824.634 335.738 824.289 336.54C823.945 337.335 823.772 338.277 823.772 339.364C823.772 340.477 823.941 341.438 824.279 342.247C824.618 343.056 825.095 343.682 825.711 344.126C826.334 344.571 827.067 344.793 827.909 344.793C828.472 344.793 828.983 344.69 829.44 344.484C829.904 344.272 830.292 343.971 830.603 343.58C830.922 343.188 831.144 342.718 831.27 342.168H834.163C834.057 343.155 833.735 344.037 833.199 344.812C832.662 345.588 831.942 346.198 831.041 346.642C830.146 347.086 829.095 347.308 827.889 347.308ZM839.815 337.932V347H836.842V326.636H839.776V334.213H839.964C840.322 333.391 840.869 332.738 841.605 332.254C842.341 331.77 843.302 331.528 844.489 331.528C845.536 331.528 846.451 331.744 847.233 332.175C848.022 332.606 848.632 333.249 849.062 334.104C849.5 334.952 849.719 336.013 849.719 337.286V347H846.746V337.643C846.746 336.523 846.457 335.655 845.881 335.038C845.304 334.415 844.502 334.104 843.474 334.104C842.772 334.104 842.142 334.253 841.585 334.551C841.035 334.849 840.601 335.287 840.283 335.864C839.971 336.434 839.815 337.123 839.815 337.932ZM856.159 337.932V347H853.186V331.727H856.04V334.213H856.229C856.58 333.404 857.13 332.755 857.879 332.264C858.635 331.774 859.586 331.528 860.733 331.528C861.774 331.528 862.685 331.747 863.467 332.185C864.25 332.616 864.856 333.259 865.287 334.114C865.718 334.969 865.933 336.026 865.933 337.286V347H862.96V337.643C862.96 336.536 862.672 335.671 862.095 335.048C861.518 334.419 860.726 334.104 859.719 334.104C859.029 334.104 858.416 334.253 857.879 334.551C857.349 334.849 856.928 335.287 856.616 335.864C856.312 336.434 856.159 337.123 856.159 337.932ZM875.854 347.308C874.422 347.308 873.172 346.98 872.105 346.324C871.038 345.668 870.209 344.75 869.619 343.57C869.029 342.39 868.734 341.011 868.734 339.433C868.734 337.849 869.029 336.464 869.619 335.277C870.209 334.09 871.038 333.169 872.105 332.513C873.172 331.857 874.422 331.528 875.854 331.528C877.286 331.528 878.535 331.857 879.602 332.513C880.67 333.169 881.498 334.09 882.088 335.277C882.678 336.464 882.973 337.849 882.973 339.433C882.973 341.011 882.678 342.39 882.088 343.57C881.498 344.75 880.67 345.668 879.602 346.324C878.535 346.98 877.286 347.308 875.854 347.308ZM875.864 344.812C876.792 344.812 877.561 344.567 878.17 344.077C878.78 343.586 879.231 342.933 879.523 342.118C879.821 341.303 879.97 340.404 879.97 339.423C879.97 338.449 879.821 337.554 879.523 336.739C879.231 335.917 878.78 335.257 878.17 334.76C877.561 334.263 876.792 334.014 875.864 334.014C874.929 334.014 874.153 334.263 873.537 334.76C872.927 335.257 872.473 335.917 872.175 336.739C871.883 337.554 871.737 338.449 871.737 339.423C871.737 340.404 871.883 341.303 872.175 342.118C872.473 342.933 872.927 343.586 873.537 344.077C874.153 344.567 874.929 344.812 875.864 344.812ZM888.765 326.636V347H885.792V326.636H888.765ZM898.697 347.308C897.266 347.308 896.016 346.98 894.949 346.324C893.882 345.668 893.053 344.75 892.463 343.57C891.873 342.39 891.578 341.011 891.578 339.433C891.578 337.849 891.873 336.464 892.463 335.277C893.053 334.09 893.882 333.169 894.949 332.513C896.016 331.857 897.266 331.528 898.697 331.528C900.129 331.528 901.379 331.857 902.446 332.513C903.513 333.169 904.342 334.09 904.932 335.277C905.522 336.464 905.817 337.849 905.817 339.433C905.817 341.011 905.522 342.39 904.932 343.57C904.342 344.75 903.513 345.668 902.446 346.324C901.379 346.98 900.129 347.308 898.697 347.308ZM898.707 344.812C899.635 344.812 900.404 344.567 901.014 344.077C901.624 343.586 902.075 342.933 902.366 342.118C902.665 341.303 902.814 340.404 902.814 339.423C902.814 338.449 902.665 337.554 902.366 336.739C902.075 335.917 901.624 335.257 901.014 334.76C900.404 334.263 899.635 334.014 898.707 334.014C897.773 334.014 896.997 334.263 896.381 334.76C895.771 335.257 895.317 335.917 895.018 336.739C894.727 337.554 894.581 338.449 894.581 339.423C894.581 340.404 894.727 341.303 895.018 342.118C895.317 342.933 895.771 343.586 896.381 344.077C896.997 344.567 897.773 344.812 898.707 344.812ZM915.039 353.045C913.826 353.045 912.782 352.886 911.907 352.568C911.038 352.25 910.329 351.829 909.779 351.305C909.229 350.782 908.818 350.208 908.546 349.585L911.101 348.531C911.28 348.823 911.519 349.131 911.817 349.456C912.122 349.787 912.533 350.069 913.05 350.301C913.574 350.533 914.247 350.649 915.069 350.649C916.195 350.649 917.127 350.374 917.863 349.824C918.598 349.28 918.966 348.412 918.966 347.219V344.216H918.777C918.598 344.541 918.34 344.902 918.002 345.3C917.67 345.697 917.213 346.042 916.63 346.334C916.046 346.625 915.287 346.771 914.353 346.771C913.146 346.771 912.059 346.49 911.091 345.926C910.13 345.356 909.368 344.518 908.804 343.411C908.248 342.297 907.969 340.928 907.969 339.304C907.969 337.68 908.244 336.288 908.794 335.128C909.351 333.968 910.114 333.08 911.081 332.463C912.049 331.84 913.146 331.528 914.373 331.528C915.32 331.528 916.086 331.688 916.669 332.006C917.253 332.317 917.707 332.682 918.032 333.099C918.363 333.517 918.618 333.885 918.797 334.203H919.016V331.727H921.929V347.338C921.929 348.651 921.624 349.728 921.015 350.57C920.405 351.411 919.579 352.035 918.539 352.439C917.505 352.843 916.338 353.045 915.039 353.045ZM915.009 344.305C915.864 344.305 916.587 344.107 917.176 343.709C917.773 343.304 918.224 342.728 918.529 341.979C918.84 341.223 918.996 340.318 918.996 339.264C918.996 338.237 918.844 337.332 918.539 336.55C918.234 335.768 917.786 335.158 917.196 334.72C916.606 334.276 915.877 334.054 915.009 334.054C914.114 334.054 913.368 334.286 912.772 334.75C912.175 335.207 911.724 335.83 911.419 336.619C911.121 337.408 910.972 338.29 910.972 339.264C910.972 340.265 911.124 341.143 911.429 341.899C911.734 342.655 912.185 343.245 912.782 343.669C913.385 344.093 914.127 344.305 915.009 344.305ZM927.296 352.727C926.852 352.727 926.447 352.691 926.083 352.618C925.718 352.552 925.446 352.479 925.267 352.399L925.983 349.963C926.527 350.109 927.011 350.172 927.435 350.152C927.859 350.132 928.234 349.973 928.559 349.675C928.89 349.376 929.182 348.889 929.434 348.213L929.801 347.199L924.213 331.727H927.395L931.263 343.58H931.422L935.29 331.727H938.482L932.188 349.038C931.896 349.834 931.525 350.507 931.074 351.057C930.623 351.614 930.087 352.031 929.463 352.31C928.84 352.588 928.118 352.727 927.296 352.727Z" fill="#008360"/>
<path d="M588.397 579V557.182H596.174C597.871 557.182 599.278 557.491 600.393 558.109C601.508 558.727 602.342 559.572 602.896 560.644C603.45 561.71 603.727 562.91 603.727 564.245C603.727 565.587 603.447 566.795 602.886 567.867C602.332 568.933 601.494 569.778 600.371 570.403C599.256 571.021 597.854 571.33 596.163 571.33H590.815V568.538H595.865C596.938 568.538 597.808 568.354 598.475 567.984C599.143 567.608 599.633 567.097 599.945 566.45C600.258 565.804 600.414 565.069 600.414 564.245C600.414 563.421 600.258 562.69 599.945 562.05C599.633 561.411 599.139 560.911 598.464 560.548C597.797 560.186 596.916 560.005 595.822 560.005H591.689V579H588.397ZM607.086 579V557.182H614.863C616.554 557.182 617.956 557.473 619.072 558.055C620.194 558.638 621.032 559.444 621.586 560.474C622.14 561.496 622.417 562.679 622.417 564.021C622.417 565.357 622.136 566.532 621.575 567.548C621.021 568.556 620.183 569.341 619.061 569.902C617.946 570.463 616.543 570.744 614.853 570.744H608.961V567.91H614.555C615.62 567.91 616.486 567.757 617.154 567.452C617.829 567.146 618.322 566.702 618.635 566.12C618.947 565.538 619.104 564.838 619.104 564.021C619.104 563.197 618.944 562.484 618.624 561.88C618.312 561.276 617.818 560.815 617.143 560.495C616.476 560.168 615.599 560.005 614.512 560.005H610.378V579H607.086ZM617.857 569.156L623.248 579H619.498L614.214 569.156H617.857ZM644.875 568.091C644.875 570.42 644.449 572.423 643.596 574.099C642.744 575.768 641.576 577.054 640.091 577.956C638.614 578.851 636.934 579.298 635.052 579.298C633.163 579.298 631.476 578.851 629.992 577.956C628.515 577.054 627.35 575.765 626.498 574.089C625.645 572.413 625.219 570.413 625.219 568.091C625.219 565.761 625.645 563.762 626.498 562.093C627.35 560.417 628.515 559.131 629.992 558.237C631.476 557.335 633.163 556.884 635.052 556.884C636.934 556.884 638.614 557.335 640.091 558.237C641.576 559.131 642.744 560.417 643.596 562.093C644.449 563.762 644.875 565.761 644.875 568.091ZM641.615 568.091C641.615 566.315 641.327 564.82 640.752 563.606C640.184 562.384 639.403 561.461 638.408 560.836C637.421 560.204 636.302 559.888 635.052 559.888C633.795 559.888 632.673 560.204 631.686 560.836C630.699 561.461 629.917 562.384 629.342 563.606C628.774 564.82 628.49 566.315 628.49 568.091C628.49 569.866 628.774 571.365 629.342 572.587C629.917 573.801 630.699 574.724 631.686 575.357C632.673 575.982 633.795 576.294 635.052 576.294C636.302 576.294 637.421 575.982 638.408 575.357C639.403 574.724 640.184 573.801 640.752 572.587C641.327 571.365 641.615 569.866 641.615 568.091ZM656.959 557.182H660.24V572.651C660.24 574.05 659.963 575.246 659.409 576.241C658.863 577.235 658.092 577.995 657.098 578.521C656.103 579.039 654.939 579.298 653.603 579.298C652.375 579.298 651.27 579.075 650.29 578.627C649.317 578.18 648.547 577.53 647.978 576.678C647.417 575.818 647.137 574.774 647.137 573.545H650.407C650.407 574.149 650.546 574.671 650.823 575.112C651.107 575.552 651.494 575.896 651.984 576.145C652.481 576.386 653.049 576.507 653.689 576.507C654.385 576.507 654.974 576.362 655.457 576.07C655.947 575.772 656.32 575.335 656.576 574.76C656.831 574.185 656.959 573.482 656.959 572.651V557.182ZM664.532 579V557.182H678.211V560.016H667.824V566.663H677.497V569.487H667.824V576.166H678.339V579H664.532ZM700.229 564.277H696.906C696.778 563.567 696.54 562.942 696.192 562.402C695.844 561.862 695.418 561.404 694.913 561.028C694.409 560.651 693.844 560.367 693.219 560.175C692.602 559.984 691.945 559.888 691.249 559.888C689.991 559.888 688.866 560.204 687.871 560.836C686.884 561.468 686.103 562.395 685.528 563.616C684.96 564.838 684.675 566.33 684.675 568.091C684.675 569.866 684.96 571.365 685.528 572.587C686.103 573.808 686.888 574.732 687.882 575.357C688.876 575.982 689.995 576.294 691.238 576.294C691.927 576.294 692.58 576.202 693.198 576.017C693.823 575.825 694.388 575.545 694.892 575.175C695.396 574.806 695.822 574.355 696.17 573.822C696.526 573.283 696.771 572.665 696.906 571.969L700.229 571.979C700.052 573.052 699.707 574.039 699.196 574.941C698.692 575.836 698.042 576.61 697.246 577.263C696.458 577.91 695.556 578.411 694.54 578.766C693.525 579.121 692.417 579.298 691.217 579.298C689.327 579.298 687.644 578.851 686.167 577.956C684.69 577.054 683.525 575.765 682.673 574.089C681.827 572.413 681.405 570.413 681.405 568.091C681.405 565.761 681.831 563.762 682.683 562.093C683.536 560.417 684.7 559.131 686.178 558.237C687.655 557.335 689.335 556.884 691.217 556.884C692.374 556.884 693.454 557.05 694.455 557.384C695.464 557.711 696.369 558.194 697.172 558.833C697.974 559.465 698.638 560.239 699.164 561.156C699.69 562.065 700.045 563.105 700.229 564.277ZM702.593 560.016V557.182H719.478V560.016H712.671V579H709.389V560.016H702.593ZM742.049 562.913C741.935 561.905 741.466 561.124 740.643 560.57C739.819 560.009 738.782 559.728 737.532 559.728C736.637 559.728 735.863 559.87 735.209 560.154C734.556 560.431 734.048 560.815 733.686 561.305C733.331 561.788 733.153 562.338 733.153 562.956C733.153 563.474 733.274 563.922 733.515 564.298C733.764 564.675 734.087 564.991 734.485 565.246C734.89 565.495 735.323 565.705 735.785 565.875C736.246 566.038 736.69 566.173 737.116 566.28L739.247 566.834C739.943 567.004 740.657 567.235 741.388 567.526C742.12 567.817 742.798 568.201 743.423 568.677C744.048 569.153 744.552 569.742 744.936 570.445C745.327 571.148 745.522 571.99 745.522 572.97C745.522 574.206 745.202 575.303 744.563 576.262C743.931 577.221 743.011 577.977 741.804 578.531C740.604 579.085 739.151 579.362 737.447 579.362C735.813 579.362 734.4 579.103 733.206 578.585C732.013 578.066 731.079 577.331 730.405 576.379C729.73 575.42 729.357 574.284 729.286 572.97H732.589C732.653 573.759 732.908 574.415 733.356 574.941C733.81 575.46 734.389 575.847 735.092 576.102C735.802 576.351 736.58 576.475 737.425 576.475C738.356 576.475 739.183 576.33 739.907 576.038C740.639 575.74 741.214 575.328 741.633 574.803C742.052 574.27 742.262 573.648 742.262 572.938C742.262 572.292 742.077 571.763 741.708 571.351C741.346 570.939 740.852 570.598 740.227 570.328C739.609 570.058 738.91 569.82 738.128 569.614L735.55 568.911C733.803 568.435 732.418 567.736 731.395 566.812C730.38 565.889 729.872 564.668 729.872 563.148C729.872 561.891 730.213 560.793 730.895 559.856C731.577 558.918 732.5 558.19 733.665 557.672C734.829 557.146 736.143 556.884 737.606 556.884C739.084 556.884 740.387 557.143 741.516 557.661C742.653 558.18 743.547 558.893 744.201 559.803C744.854 560.705 745.195 561.741 745.224 562.913H742.049ZM767.077 564.277H763.753C763.625 563.567 763.387 562.942 763.039 562.402C762.691 561.862 762.265 561.404 761.761 561.028C761.257 560.651 760.692 560.367 760.067 560.175C759.449 559.984 758.792 559.888 758.096 559.888C756.839 559.888 755.713 560.204 754.719 560.836C753.732 561.468 752.951 562.395 752.375 563.616C751.807 564.838 751.523 566.33 751.523 568.091C751.523 569.866 751.807 571.365 752.375 572.587C752.951 573.808 753.735 574.732 754.73 575.357C755.724 575.982 756.843 576.294 758.086 576.294C758.775 576.294 759.428 576.202 760.046 576.017C760.671 575.825 761.235 575.545 761.74 575.175C762.244 574.806 762.67 574.355 763.018 573.822C763.373 573.283 763.618 572.665 763.753 571.969L767.077 571.979C766.9 573.052 766.555 574.039 766.044 574.941C765.539 575.836 764.89 576.61 764.094 577.263C763.306 577.91 762.404 578.411 761.388 578.766C760.373 579.121 759.265 579.298 758.064 579.298C756.175 579.298 754.492 578.851 753.015 577.956C751.537 577.054 750.373 575.765 749.52 574.089C748.675 572.413 748.252 570.413 748.252 568.091C748.252 565.761 748.679 563.762 749.531 562.093C750.383 560.417 751.548 559.131 753.025 558.237C754.502 557.335 756.182 556.884 758.064 556.884C759.222 556.884 760.301 557.05 761.303 557.384C762.311 557.711 763.217 558.194 764.02 558.833C764.822 559.465 765.486 560.239 766.012 561.156C766.537 562.065 766.892 563.105 767.077 564.277ZM770.516 579V557.182H784.195V560.016H773.808V566.663H783.481V569.487H773.808V576.166H784.323V579H770.516ZM807.045 568.091C807.045 570.42 806.619 572.423 805.766 574.099C804.914 575.768 803.746 577.054 802.261 577.956C800.784 578.851 799.104 579.298 797.222 579.298C795.333 579.298 793.646 578.851 792.162 577.956C790.685 577.054 789.52 575.765 788.668 574.089C787.815 572.413 787.389 570.413 787.389 568.091C787.389 565.761 787.815 563.762 788.668 562.093C789.52 560.417 790.685 559.131 792.162 558.237C793.646 557.335 795.333 556.884 797.222 556.884C799.104 556.884 800.784 557.335 802.261 558.237C803.746 559.131 804.914 560.417 805.766 562.093C806.619 563.762 807.045 565.761 807.045 568.091ZM803.785 568.091C803.785 566.315 803.497 564.82 802.922 563.606C802.354 562.384 801.572 561.461 800.578 560.836C799.591 560.204 798.472 559.888 797.222 559.888C795.965 559.888 794.843 560.204 793.856 560.836C792.869 561.461 792.087 562.384 791.512 563.606C790.944 564.82 790.66 566.315 790.66 568.091C790.66 569.866 790.944 571.365 791.512 572.587C792.087 573.801 792.869 574.724 793.856 575.357C794.843 575.982 795.965 576.294 797.222 576.294C798.472 576.294 799.591 575.982 800.578 575.357C801.572 574.724 802.354 573.801 802.922 572.587C803.497 571.365 803.785 569.866 803.785 568.091ZM810.649 579V557.182H818.426C820.123 557.182 821.53 557.491 822.645 558.109C823.76 558.727 824.594 559.572 825.148 560.644C825.702 561.71 825.979 562.91 825.979 564.245C825.979 565.587 825.699 566.795 825.138 567.867C824.584 568.933 823.746 569.778 822.623 570.403C821.508 571.021 820.106 571.33 818.415 571.33H813.067V568.538H818.117C819.189 568.538 820.059 568.354 820.727 567.984C821.395 567.608 821.885 567.097 822.197 566.45C822.51 565.804 822.666 565.069 822.666 564.245C822.666 563.421 822.51 562.69 822.197 562.05C821.885 561.411 821.391 560.911 820.716 560.548C820.049 560.186 819.168 560.005 818.074 560.005H813.941V579H810.649ZM829.338 579V557.182H843.017V560.016H832.63V566.663H842.304V569.487H832.63V576.166H843.145V579H829.338Z" fill="#239869"/>
<path d="M508.237 347V326.636H515.695C517.14 326.636 518.336 326.875 519.284 327.352C520.232 327.823 520.941 328.463 521.412 329.271C521.883 330.073 522.118 330.978 522.118 331.986C522.118 332.834 521.962 333.55 521.651 334.134C521.339 334.71 520.921 335.174 520.398 335.526C519.881 335.87 519.311 336.122 518.688 336.281V336.48C519.364 336.513 520.023 336.732 520.666 337.136C521.316 337.534 521.853 338.101 522.277 338.837C522.701 339.572 522.913 340.467 522.913 341.521C522.913 342.562 522.668 343.497 522.178 344.325C521.694 345.147 520.945 345.8 519.93 346.284C518.916 346.761 517.62 347 516.043 347H508.237ZM511.31 344.365H515.744C517.216 344.365 518.27 344.08 518.906 343.51C519.543 342.94 519.861 342.227 519.861 341.372C519.861 340.729 519.698 340.139 519.374 339.602C519.049 339.065 518.585 338.638 517.982 338.32C517.385 338.001 516.676 337.842 515.854 337.842H511.31V344.365ZM511.31 335.446H515.426C516.116 335.446 516.735 335.313 517.286 335.048C517.842 334.783 518.283 334.412 518.608 333.935C518.939 333.451 519.105 332.881 519.105 332.224C519.105 331.383 518.81 330.677 518.22 330.107C517.63 329.536 516.725 329.251 515.506 329.251H511.31V335.446ZM535.494 340.666V331.727H538.477V347H535.553V344.355H535.394C535.043 345.17 534.479 345.85 533.704 346.393C532.935 346.93 531.977 347.199 530.83 347.199C529.849 347.199 528.981 346.983 528.225 346.553C527.476 346.115 526.886 345.469 526.455 344.614C526.031 343.759 525.819 342.701 525.819 341.442V331.727H528.792V341.084C528.792 342.125 529.08 342.953 529.657 343.57C530.234 344.186 530.983 344.494 531.904 344.494C532.461 344.494 533.014 344.355 533.565 344.077C534.121 343.798 534.582 343.377 534.947 342.814C535.318 342.25 535.5 341.535 535.494 340.666ZM553.416 335.456L550.721 335.933C550.609 335.589 550.43 335.26 550.184 334.949C549.946 334.637 549.621 334.382 549.21 334.183C548.799 333.984 548.285 333.885 547.669 333.885C546.827 333.885 546.124 334.074 545.561 334.452C544.997 334.823 544.716 335.304 544.716 335.893C544.716 336.404 544.904 336.815 545.282 337.126C545.66 337.438 546.27 337.693 547.112 337.892L549.538 338.449C550.943 338.774 551.991 339.274 552.68 339.95C553.369 340.626 553.714 341.505 553.714 342.585C553.714 343.5 553.449 344.315 552.919 345.031C552.395 345.741 551.663 346.297 550.721 346.702C549.787 347.106 548.703 347.308 547.47 347.308C545.76 347.308 544.364 346.944 543.284 346.214C542.203 345.479 541.54 344.435 541.295 343.082L544.169 342.645C544.348 343.394 544.716 343.961 545.272 344.345C545.829 344.723 546.555 344.912 547.45 344.912C548.424 344.912 549.203 344.71 549.787 344.305C550.37 343.894 550.662 343.394 550.662 342.804C550.662 342.327 550.483 341.926 550.125 341.601C549.773 341.276 549.233 341.031 548.504 340.865L545.919 340.298C544.493 339.973 543.44 339.456 542.757 338.747C542.081 338.038 541.743 337.14 541.743 336.053C541.743 335.151 541.994 334.362 542.498 333.686C543.002 333.01 543.698 332.483 544.586 332.105C545.475 331.721 546.492 331.528 547.639 331.528C549.289 331.528 550.589 331.886 551.537 332.602C552.484 333.312 553.111 334.263 553.416 335.456ZM556.483 347V331.727H559.456V347H556.483ZM557.984 329.371C557.467 329.371 557.023 329.198 556.652 328.854C556.287 328.502 556.105 328.085 556.105 327.601C556.105 327.11 556.287 326.693 556.652 326.348C557.023 325.997 557.467 325.821 557.984 325.821C558.501 325.821 558.942 325.997 559.307 326.348C559.678 326.693 559.864 327.11 559.864 327.601C559.864 328.085 559.678 328.502 559.307 328.854C558.942 329.198 558.501 329.371 557.984 329.371ZM565.929 337.932V347H562.956V331.727H565.809V334.213H565.998C566.35 333.404 566.9 332.755 567.649 332.264C568.404 331.774 569.356 331.528 570.502 331.528C571.543 331.528 572.455 331.747 573.237 332.185C574.019 332.616 574.626 333.259 575.056 334.114C575.487 334.969 575.703 336.026 575.703 337.286V347H572.73V337.643C572.73 336.536 572.441 335.671 571.865 335.048C571.288 334.419 570.496 334.104 569.488 334.104C568.799 334.104 568.186 334.253 567.649 334.551C567.118 334.849 566.698 335.287 566.386 335.864C566.081 336.434 565.929 337.123 565.929 337.932ZM585.772 347.308C584.268 347.308 582.972 346.987 581.885 346.344C580.804 345.694 579.969 344.783 579.379 343.609C578.796 342.429 578.504 341.047 578.504 339.463C578.504 337.899 578.796 336.52 579.379 335.327C579.969 334.134 580.791 333.202 581.845 332.533C582.905 331.863 584.145 331.528 585.564 331.528C586.425 331.528 587.261 331.671 588.069 331.956C588.878 332.241 589.604 332.688 590.247 333.298C590.89 333.908 591.397 334.7 591.768 335.675C592.139 336.643 592.325 337.819 592.325 339.205V340.259H580.184V338.031H589.412C589.412 337.249 589.252 336.556 588.934 335.953C588.616 335.343 588.169 334.863 587.592 334.511C587.022 334.16 586.352 333.984 585.583 333.984C584.748 333.984 584.019 334.19 583.396 334.601C582.779 335.005 582.302 335.536 581.964 336.192C581.633 336.841 581.467 337.547 581.467 338.31V340.05C581.467 341.071 581.646 341.939 582.004 342.655C582.368 343.371 582.876 343.918 583.525 344.295C584.175 344.667 584.934 344.852 585.802 344.852C586.366 344.852 586.879 344.773 587.343 344.614C587.807 344.448 588.208 344.203 588.547 343.878C588.885 343.553 589.143 343.152 589.322 342.675L592.136 343.182C591.911 344.01 591.506 344.736 590.923 345.359C590.346 345.976 589.62 346.456 588.745 346.801C587.877 347.139 586.886 347.308 585.772 347.308ZM606.568 335.456L603.874 335.933C603.761 335.589 603.582 335.26 603.337 334.949C603.098 334.637 602.773 334.382 602.362 334.183C601.951 333.984 601.438 333.885 600.821 333.885C599.979 333.885 599.277 334.074 598.713 334.452C598.15 334.823 597.868 335.304 597.868 335.893C597.868 336.404 598.057 336.815 598.435 337.126C598.813 337.438 599.422 337.693 600.264 337.892L602.69 338.449C604.096 338.774 605.143 339.274 605.832 339.95C606.522 340.626 606.866 341.505 606.866 342.585C606.866 343.5 606.601 344.315 606.071 345.031C605.547 345.741 604.815 346.297 603.874 346.702C602.939 347.106 601.855 347.308 600.622 347.308C598.912 347.308 597.517 346.944 596.436 346.214C595.356 345.479 594.693 344.435 594.447 343.082L597.321 342.645C597.5 343.394 597.868 343.961 598.425 344.345C598.982 344.723 599.707 344.912 600.602 344.912C601.577 344.912 602.356 344.71 602.939 344.305C603.522 343.894 603.814 343.394 603.814 342.804C603.814 342.327 603.635 341.926 603.277 341.601C602.926 341.276 602.385 341.031 601.656 340.865L599.071 340.298C597.646 339.973 596.592 339.456 595.909 338.747C595.233 338.038 594.895 337.14 594.895 336.053C594.895 335.151 595.147 334.362 595.651 333.686C596.154 333.01 596.85 332.483 597.739 332.105C598.627 331.721 599.644 331.528 600.791 331.528C602.442 331.528 603.741 331.886 604.689 332.602C605.637 333.312 606.263 334.263 606.568 335.456ZM621.08 335.456L618.385 335.933C618.273 335.589 618.094 335.26 617.848 334.949C617.61 334.637 617.285 334.382 616.874 334.183C616.463 333.984 615.949 333.885 615.333 333.885C614.491 333.885 613.788 334.074 613.225 334.452C612.661 334.823 612.38 335.304 612.38 335.893C612.38 336.404 612.569 336.815 612.946 337.126C613.324 337.438 613.934 337.693 614.776 337.892L617.202 338.449C618.607 338.774 619.655 339.274 620.344 339.95C621.033 340.626 621.378 341.505 621.378 342.585C621.378 343.5 621.113 344.315 620.583 345.031C620.059 345.741 619.327 346.297 618.385 346.702C617.451 347.106 616.367 347.308 615.134 347.308C613.424 347.308 612.028 346.944 610.948 346.214C609.867 345.479 609.204 344.435 608.959 343.082L611.833 342.645C612.012 343.394 612.38 343.961 612.936 344.345C613.493 344.723 614.219 344.912 615.114 344.912C616.088 344.912 616.867 344.71 617.451 344.305C618.034 343.894 618.326 343.394 618.326 342.804C618.326 342.327 618.147 341.926 617.789 341.601C617.437 341.276 616.897 341.031 616.168 340.865L613.583 340.298C612.158 339.973 611.104 339.456 610.421 338.747C609.745 338.038 609.407 337.14 609.407 336.053C609.407 335.151 609.658 334.362 610.162 333.686C610.666 333.01 611.362 332.483 612.25 332.105C613.139 331.721 614.156 331.528 615.303 331.528C616.953 331.528 618.253 331.886 619.201 332.602C620.149 333.312 620.775 334.263 621.08 335.456Z" fill="#008360"/>
<circle cx="721.5" cy="292.5" r="11" fill="#239869" stroke="#56FAB8"/>
<path d="M719.586 537.414C720.367 538.195 721.633 538.195 722.414 537.414L735.142 524.686C735.923 523.905 735.923 522.639 735.142 521.858C734.361 521.077 733.095 521.077 732.314 521.858L721 533.172L709.686 521.858C708.905 521.077 707.639 521.077 706.858 521.858C706.077 522.639 706.077 523.905 706.858 524.686L719.586 537.414ZM719 293L719 536L723 536L723 293L719 293Z" fill="#239869"/>
</svg>
